{
    "asset" : {
        "generator" : "Khronos glTF Blender I/O v1.0.5",
        "version" : "2.0"
    },
    "scene" : 0,
    "scenes" : [
        {
            "name" : "Scene",
            "nodes" : [
                0,
                1,
                2,
                3,
                4,
                5
            ]
        }
    ],
    "nodes" : [
        {
            "mesh" : 0,
            "name" : "Plane",
            "rotation" : [
                0.7071068286895752,
                0,
                0,
                0.7071067094802856
            ]
        },
        {
            "mesh" : 1,
            "name" : "dixian",
            "rotation" : [
                0.7071068286895752,
                0,
                0,
                0.7071068286895752
            ],
            "scale" : [
                0.3222710192203522,
                0.3222710192203522,
                0.3222710192203522
            ],
            "translation" : [
                0.13374021649360657,
                -0.0020855949260294437,
                0.020360831171274185
            ]
        },
        {
            "mesh" : 2,
            "name" : "tuopan",
            "rotation" : [
                0.7071068286895752,
                0,
                0,
                0.7071068286895752
            ],
            "scale" : [
                0.5293924808502197,
                0.5293924808502197,
                0.5293924808502197
            ],
            "translation" : [
                0.13374021649360657,
                0.014224022626876831,
                0.020360829308629036
            ]
        },
        {
            "mesh" : 3,
            "name" : "tuopan.001",
            "rotation" : [
                0.7071068286895752,
                0,
                0,
                0.7071068286895752
            ],
            "translation" : [
                0.13374021649360657,
                0.08859105408191681,
                0.020360831171274185
            ]
        },
        {
            "mesh" : 4,
            "name" : "tuopan.002",
            "rotation" : [
                0.7071068286895752,
                0,
                0,
                0.7071068286895752
            ],
            "translation" : [
                0.13374021649360657,
                0.06927204132080078,
                0.020360833033919334
            ]
        },
        {
            "name" : "Point",
            "translation" : [
                0.9211301803588867,
                2.4302358627319336,
                0.7627968788146973
            ]
        }
    ],
    "materials" : [
        {
            "doubleSided" : true,
            "name" : "Material.001",
            "pbrMetallicRoughness" : {
                "metallicFactor" : 0,
                "roughnessFactor" : 0.6363636255264282
            }
        },
        {
            "doubleSided" : true,
            "name" : "Material.003",
            "pbrMetallicRoughness" : {
                "metallicFactor" : 0,
                "roughnessFactor" : 0.5
            }
        },
        {
            "doubleSided" : true,
            "name" : "Material.004",
            "pbrMetallicRoughness" : {
                "metallicFactor" : 0,
                "roughnessFactor" : 0.8590909242630005
            }
        },
        {
            "alphaMode" : "BLEND",
            "doubleSided" : true,
            "emissiveFactor" : [
                1,
                0.06312672048807144,
                0.06312672048807144
            ],
            "name" : "huo",
            "pbrMetallicRoughness" : {
                "metallicFactor" : 0,
                "roughnessFactor" : 0.5
            }
        },
        {
            "alphaMode" : "BLEND",
            "doubleSided" : true,
            "emissiveFactor" : [
                0.20355983078479767,
                0.6909451484680176,
                1
            ],
            "name" : "huo.002",
            "pbrMetallicRoughness" : {}
        }
    ],
    "meshes" : [
        {
            "name" : "Plane.001",
            "primitives" : [
                {
                    "attributes" : {
                        "POSITION" : 0,
                        "NORMAL" : 1,
                        "TEXCOORD_0" : 2
                    },
                    "indices" : 3,
                    "material" : 0
                }
            ]
        },
        {
            "name" : "Plane.002",
            "primitives" : [
                {
                    "attributes" : {
                        "POSITION" : 4,
                        "NORMAL" : 5,
                        "TEXCOORD_0" : 6
                    },
                    "indices" : 7,
                    "material" : 1
                }
            ]
        },
        {
            "name" : "Cube.002",
            "primitives" : [
                {
                    "attributes" : {
                        "POSITION" : 8,
                        "NORMAL" : 9,
                        "TEXCOORD_0" : 10
                    },
                    "indices" : 11,
                    "material" : 2
                }
            ]
        },
        {
            "name" : "Cube.000",
            "primitives" : [
                {
                    "attributes" : {
                        "POSITION" : 12,
                        "NORMAL" : 13,
                        "TEXCOORD_0" : 14
                    },
                    "indices" : 15,
                    "material" : 3
                }
            ]
        },
        {
            "name" : "Cube.003",
            "primitives" : [
                {
                    "attributes" : {
                        "POSITION" : 16,
                        "NORMAL" : 17,
                        "TEXCOORD_0" : 18
                    },
                    "indices" : 19,
                    "material" : 4
                }
            ]
        }
    ],
    "accessors" : [
        {
            "bufferView" : 0,
            "componentType" : 5126,
            "count" : 36,
            "max" : [
                1,
                1,
                0.02500043623149395
            ],
            "min" : [
                -1,
                -1,
                0
            ],
            "type" : "VEC3"
        },
        {
            "bufferView" : 1,
            "componentType" : 5126,
            "count" : 36,
            "type" : "VEC3"
        },
        {
            "bufferView" : 2,
            "componentType" : 5126,
            "count" : 36,
            "type" : "VEC2"
        },
        {
            "bufferView" : 3,
            "componentType" : 5123,
            "count" : 72,
            "type" : "SCALAR"
        },
        {
            "bufferView" : 4,
            "componentType" : 5126,
            "count" : 60,
            "max" : [
                1,
                1,
                0
            ],
            "min" : [
                -1,
                -1,
                -0.01815149374306202
            ],
            "type" : "VEC3"
        },
        {
            "bufferView" : 5,
            "componentType" : 5126,
            "count" : 60,
            "type" : "VEC3"
        },
        {
            "bufferView" : 6,
            "componentType" : 5126,
            "count" : 60,
            "type" : "VEC2"
        },
        {
            "bufferView" : 7,
            "componentType" : 5123,
            "count" : 96,
            "type" : "SCALAR"
        },
        {
            "bufferView" : 8,
            "componentType" : 5126,
            "count" : 24,
            "max" : [
                0.5309292078018188,
                0.5309292078018188,
                0.06321963667869568
            ],
            "min" : [
                -0.5309292078018188,
                -0.5309292078018188,
                -0.06321963667869568
            ],
            "type" : "VEC3"
        },
        {
            "bufferView" : 9,
            "componentType" : 5126,
            "count" : 24,
            "type" : "VEC3"
        },
        {
            "bufferView" : 10,
            "componentType" : 5126,
            "count" : 24,
            "type" : "VEC2"
        },
        {
            "bufferView" : 11,
            "componentType" : 5123,
            "count" : 36,
            "type" : "SCALAR"
        },
        {
            "bufferView" : 12,
            "componentType" : 5126,
            "count" : 616,
            "max" : [
                0.259684681892395,
                0.259684681892395,
                0.030921582132577896
            ],
            "min" : [
                -0.259684681892395,
                -0.259684681892395,
                -0.6402472257614136
            ],
            "type" : "VEC3"
        },
        {
            "bufferView" : 13,
            "componentType" : 5126,
            "count" : 616,
            "type" : "VEC3"
        },
        {
            "bufferView" : 14,
            "componentType" : 5126,
            "count" : 616,
            "type" : "VEC2"
        },
        {
            "bufferView" : 15,
            "componentType" : 5123,
            "count" : 864,
            "type" : "SCALAR"
        },
        {
            "bufferView" : 16,
            "componentType" : 5126,
            "count" : 5644,
            "max" : [
                0.2737361192703247,
                0.2737361192703247,
                0.03660076856613159
            ],
            "min" : [
                -0.2737361192703247,
                -0.2737361192703247,
                -0.7381322383880615
            ],
            "type" : "VEC3"
        },
        {
            "bufferView" : 17,
            "componentType" : 5126,
            "count" : 5644,
            "type" : "VEC3"
        },
        {
            "bufferView" : 18,
            "componentType" : 5126,
            "count" : 5644,
            "type" : "VEC2"
        },
        {
            "bufferView" : 19,
            "componentType" : 5123,
            "count" : 10368,
            "type" : "SCALAR"
        }
    ],
    "bufferViews" : [
        {
            "buffer" : 0,
            "byteLength" : 432,
            "byteOffset" : 0
        },
        {
            "buffer" : 0,
            "byteLength" : 432,
            "byteOffset" : 432
        },
        {
            "buffer" : 0,
            "byteLength" : 288,
            "byteOffset" : 864
        },
        {
            "buffer" : 0,
            "byteLength" : 144,
            "byteOffset" : 1152
        },
        {
            "buffer" : 0,
            "byteLength" : 720,
            "byteOffset" : 1296
        },
        {
            "buffer" : 0,
            "byteLength" : 720,
            "byteOffset" : 2016
        },
        {
            "buffer" : 0,
            "byteLength" : 480,
            "byteOffset" : 2736
        },
        {
            "buffer" : 0,
            "byteLength" : 192,
            "byteOffset" : 3216
        },
        {
            "buffer" : 0,
            "byteLength" : 288,
            "byteOffset" : 3408
        },
        {
            "buffer" : 0,
            "byteLength" : 288,
            "byteOffset" : 3696
        },
        {
            "buffer" : 0,
            "byteLength" : 192,
            "byteOffset" : 3984
        },
        {
            "buffer" : 0,
            "byteLength" : 72,
            "byteOffset" : 4176
        },
        {
            "buffer" : 0,
            "byteLength" : 7392,
            "byteOffset" : 4248
        },
        {
            "buffer" : 0,
            "byteLength" : 7392,
            "byteOffset" : 11640
        },
        {
            "buffer" : 0,
            "byteLength" : 4928,
            "byteOffset" : 19032
        },
        {
            "buffer" : 0,
            "byteLength" : 1728,
            "byteOffset" : 23960
        },
        {
            "buffer" : 0,
            "byteLength" : 67728,
            "byteOffset" : 25688
        },
        {
            "buffer" : 0,
            "byteLength" : 67728,
            "byteOffset" : 93416
        },
        {
            "buffer" : 0,
            "byteLength" : 45152,
            "byteOffset" : 161144
        },
        {
            "buffer" : 0,
            "byteLength" : 20736,
            "byteOffset" : 206296
        }
    ],
    "buffers" : [
        {
            "byteLength" : 227032,
            "uri" : "huo\uff08g\uff09.bin"
        }
    ]
}
