{
    "asset" : {
        "generator" : "Khronos glTF Blender I/O v1.1.45",
        "version" : "2.0"
    },
    "scene" : 0,
    "scenes" : [
        {
            "name" : "Empty",
            "nodes" : [
                1
            ]
        }
    ],
    "nodes" : [
        {
            "mesh" : 0,
            "name" : "SaoDiJiQiRan_Low",
            "rotation" : [
                0.66529381275177,
                -0.16220048069953918,
                0.17628133296966553,
                0.7071067690849304
            ]
        },
        {
            "children" : [
                0
            ],
            "name" : "Animat"
        }
    ],
    "materials" : [
        {
            "doubleSided" : true,
            "emissiveFactor" : [
                0,
                0,
                0
            ],
            "name" : "Mi02_M",
            "normalTexture" : {
                "index" : 0,
                "texCoord" : 0
            },
            "pbrMetallicRoughness" : {
                "baseColorTexture" : {
                    "index" : 1,
                    "texCoord" : 0
                },
                "metallicFactor" : 0,
                "metallicRoughnessTexture" : {
                    "index" : 2,
                    "texCoord" : 0
                }
            }
        }
    ],
    "meshes" : [
        {
            "name" : "Mesh.054",
            "primitives" : [
                {
                    "attributes" : {
                        "POSITION" : 0,
                        "NORMAL" : 1,
                        "TEXCOORD_0" : 2
                    },
                    "indices" : 3,
                    "material" : 0
                }
            ]
        }
    ],
    "textures" : [
        {
            "source" : 0
        },
        {
            "source" : 1
        },
        {
            "source" : 2
        }
    ],
    "images" : [
        {
            "bufferView" : 4,
            "mimeType" : "image/jpeg",
            "name" : "XiaoMI02_Normal"
        },
        {
            "bufferView" : 5,
            "mimeType" : "image/png",
            "name" : "XiaoMI02_BaseColor"
        },
        {
            "bufferView" : 6,
            "mimeType" : "image/jpeg",
            "name" : "XiaoMI02_Roughness"
        }
    ],
    "accessors" : [
        {
            "bufferView" : 0,
            "componentType" : 5126,
            "count" : 1028,
            "max" : [
                3.0712785720825195,
                1.0996437072753906,
                -0.007629454135894775
            ],
            "min" : [
                0.8719997406005859,
                -1.0996265411376953,
                -0.5571041107177734
            ],
            "type" : "VEC3"
        },
        {
            "bufferView" : 1,
            "componentType" : 5126,
            "count" : 1028,
            "type" : "VEC3"
        },
        {
            "bufferView" : 2,
            "componentType" : 5126,
            "count" : 1028,
            "type" : "VEC2"
        },
        {
            "bufferView" : 3,
            "componentType" : 5123,
            "count" : 4104,
            "type" : "SCALAR"
        }
    ],
    "bufferViews" : [
        {
            "buffer" : 0,
            "byteLength" : 12336,
            "byteOffset" : 0
        },
        {
            "buffer" : 0,
            "byteLength" : 12336,
            "byteOffset" : 12336
        },
        {
            "buffer" : 0,
            "byteLength" : 8224,
            "byteOffset" : 24672
        },
        {
            "buffer" : 0,
            "byteLength" : 8208,
            "byteOffset" : 32896
        },
        {
            "buffer" : 0,
            "byteLength" : 114232,
            "byteOffset" : 41104
        },
        {
            "buffer" : 0,
            "byteLength" : 751347,
            "byteOffset" : 155336
        },
        {
            "buffer" : 0,
            "byteLength" : 55769,
            "byteOffset" : 906684
        }
    ],
    "buffers" : [
        {
            "byteLength" : 962456,
            "uri" : "data:application/octet-stream;base64,"
        }
    ]
}
